<svg width="35" height="15" viewBox="0 0 35 15" fill="none" xmlns="http://www.w3.org/2000/svg">
    <path d="M2.26432 6.96209C2.26432 5.54101 3.03781 4.80339 4.00978 4.80339C4.96602 4.80339 5.66625 5.36337 5.66625 6.85243C5.66625 8.38317 4.90688 8.90155 4.00978 8.90155C3.0207 8.90155 2.26432 8.29441 2.26432 6.96209ZM7.90741 7.34114C7.90741 4.73349 6.7192 2.94922 4.02081 2.94922C1.38331 2.94922 0 4.7443 0 6.92972C0 8.95379 1.27249 10.8422 3.57751 10.8422C4.77426 10.8422 5.46854 10.3478 5.63872 10.203V11.2091C5.63872 12.3719 5.1733 13.1471 3.96539 13.1471C3.384 13.1471 2.95418 12.9936 2.55519 12.8079C2.20098 12.6431 1.93717 12.4526 1.58287 12.4526C0.685267 12.4526 0.436902 13.5289 0.441405 13.5346C1.11239 14.3798 2.65778 15 3.95442 15C6.50313 15 7.90776 13.5562 7.90776 10.6924C7.90767 10.6924 7.90741 7.80822 7.90741 7.34114Z" fill="#FFD10D" />
    <path d="M11.4234 6.51796C11.4234 6.52065 11.9387 6.70449 13.2906 6.70449C14.2215 6.70449 14.7345 6.34844 14.7345 5.79124C14.7345 5.32023 14.2714 4.80625 13.2962 4.80625C12.0661 4.80625 11.4234 5.71856 11.4234 6.51796ZM16.5745 10.253C16.1739 10.8035 14.5928 11.597 13.1521 11.597C10.5922 11.597 9.11273 9.83946 9.11273 7.46268C9.11273 4.34592 11.2073 2.94913 13.2107 2.94913C15.317 2.94913 16.7601 4.0714 16.7601 5.78316C16.7601 6.98624 16.0776 8.14878 13.2478 8.14878C11.9303 8.14878 11.355 7.98645 11.355 7.98735C11.355 9.48119 12.5869 9.75853 13.3017 9.75853C13.8139 9.75853 14.2126 9.64079 14.5483 9.50543C14.8699 9.37589 15.1609 9.22835 15.554 9.22835C16.3021 9.22831 16.577 10.2495 16.5745 10.253Z" fill="#FFD10D" />
    <path d="M23.2121 10.1973C23.2121 11.0477 22.4277 11.6089 21.3515 11.6089C19.1697 11.6089 18.0303 10.0869 18.0303 7.76409L18.0489 2.08281C18.0489 1.36066 18.2471 0.843434 18.6434 0.530265C19.0398 0.217097 19.6162 0.0605774 20.3718 0.0605774C20.3595 0.145143 20.3468 0.259466 20.3349 0.40363C20.3221 0.536208 20.313 0.713592 20.3069 0.936465C20.3003 1.15925 20.2973 1.45092 20.2973 1.81197L20.316 2.94916H22.8062C22.8062 3.49081 22.6512 3.92424 22.3416 4.24933C22.032 4.574 21.5921 4.73664 21.0224 4.73664H20.3159L20.2973 7.30043C20.2973 7.80577 20.362 8.28769 20.455 8.63087C20.5478 8.97379 21.0478 9.77204 22.0231 9.77204C22.5994 9.77204 22.9484 9.69123 23.1409 9.64279C23.1706 9.74019 23.2121 9.89581 23.2121 10.1973Z" fill="#FFD10D" />
    <path d="M28.0459 9.80013C27.8632 9.84878 27.7358 9.88098 27.4864 9.88098C27.0043 9.88098 26.6949 9.54045 26.6949 8.98072V4.8811C26.6949 4.51997 26.6977 4.22843 26.7043 4.00556C26.7102 3.78273 26.7196 3.60535 26.732 3.47285C26.7443 3.3286 26.7567 3.21437 26.7692 3.12967C26.001 3.12967 25.4187 3.28628 25.0224 3.59936C24.6257 3.91253 24.4278 4.4298 24.4278 5.15199L24.409 9.32784C24.409 10.8216 25.3947 11.6452 26.6386 11.597C27.4221 11.5667 28.1015 11.2039 28.1015 10.4018C28.1014 10.0667 28.0459 9.80013 28.0459 9.80013ZM26.6535 1.79555C26.3866 2.2277 26.0179 2.44348 25.5482 2.44348C25.345 2.44348 25.1545 2.40043 24.9765 2.31398C24.786 2.20261 24.6397 2.05806 24.538 1.87867C24.4365 1.70013 24.3859 1.50556 24.3859 1.2959C24.3859 1.06161 24.4428 0.851518 24.5574 0.666396C24.6717 0.456734 24.8303 0.293245 25.0338 0.175673C25.2366 0.0586149 25.4461 0 25.6624 0C25.8529 0 26.0372 0.0491236 26.2151 0.147841C26.4183 0.246986 26.5705 0.388671 26.6725 0.573835C26.7741 0.758957 26.8247 0.956392 26.8247 1.1661C26.8247 1.38837 26.7678 1.5982 26.6535 1.79555Z" fill="#FFD10D" />
    <path d="M29.0505 7.0656C29.0505 6.25953 29.1714 5.60053 29.4127 5.08886C29.6545 4.57719 29.9671 4.17702 30.3513 3.88822C30.735 3.5995 31.1659 3.40378 31.6428 3.30151C32.1197 3.19929 32.5934 3.14807 33.0645 3.14807H33.9751C34.0687 3.34478 34.1075 3.67851 34.1075 3.85619C34.1075 4.62054 33.4703 4.88967 32.7444 4.94897C31.4536 5.05431 31.336 5.96633 31.336 6.67684V9.68343C31.336 10.0445 31.3389 10.3365 31.3456 10.559C31.3517 10.7819 31.3608 10.9592 31.3734 11.0918C31.3854 11.2361 31.3981 11.4433 31.4105 11.5155C30.6548 11.5155 30.0863 11.4992 29.5972 11.1386C29.1485 10.8076 29.0505 10.1349 29.0505 9.41263V7.0656H29.0505Z" fill="#FFD10D" />
</svg>
